<svg width="30" height="31" viewBox="0 0 30 31" fill="none" xmlns="http://www.w3.org/2000/svg">
<g clip-path="url(#clip0_142_1953)">
<path fill-rule="evenodd" clip-rule="evenodd" d="M0 15.1619C0 22.6194 5.41625 28.8206 12.5 30.0781V19.2444H8.75V15.0781H12.5V11.7444C12.5 7.99438 14.9163 5.91187 18.3337 5.91187C19.4163 5.91187 20.5837 6.07812 21.6663 6.24438V10.0781H19.75C17.9163 10.0781 17.5 10.9944 17.5 12.1619V15.0781H21.5L20.8337 19.2444H17.5V30.0781C24.5837 28.8206 30 22.6206 30 15.1619C30 6.86563 23.25 0.078125 15 0.078125C6.75 0.078125 0 6.86563 0 15.1619Z" fill="white"/>
</g>
<defs>
<clipPath id="clip0_142_1953">
<rect width="30" height="30" fill="white" transform="translate(0 0.078125)"/>
</clipPath>
</defs>
</svg>
