<svg width="30" height="31" viewBox="0 0 30 31" fill="none" xmlns="http://www.w3.org/2000/svg">
<path fill-rule="evenodd" clip-rule="evenodd" d="M8.81591 0.168125C10.4155 0.0944886 10.9255 0.078125 15 0.078125C19.0745 0.078125 19.5845 0.0958523 21.1827 0.168125C22.7809 0.240398 23.8718 0.495398 24.8264 0.864943C25.8259 1.24267 26.7327 1.83312 27.4827 2.59676C28.2464 3.3454 28.8355 4.25085 29.2118 5.25176C29.5827 6.20631 29.8364 7.29722 29.91 8.89267C29.9836 10.4949 30 11.0049 30 15.0781C30 19.1527 29.9823 19.6627 29.91 21.2622C29.8377 22.8577 29.5827 23.9486 29.2118 24.9031C28.8354 25.9042 28.2454 26.8111 27.4827 27.5609C26.7327 28.3245 25.8259 28.9136 24.8264 29.2899C23.8718 29.6609 22.7809 29.9145 21.1855 29.9881C19.5845 30.0618 19.0745 30.0781 15 30.0781C10.9255 30.0781 10.4155 30.0604 8.81591 29.9881C7.22045 29.9159 6.12955 29.6609 5.175 29.2899C4.17398 28.9135 3.26703 28.3235 2.51727 27.5609C1.75415 26.8118 1.16361 25.9052 0.786818 24.9045C0.417273 23.9499 0.163636 22.859 0.09 21.2636C0.0163636 19.6613 0 19.1513 0 15.0781C0 11.0036 0.0177273 10.4936 0.09 8.8954C0.162273 7.29722 0.417273 6.20631 0.786818 5.25176C1.16417 4.25096 1.75516 3.34446 2.51864 2.5954C3.26733 1.83244 4.17337 1.24191 5.17364 0.864943C6.12818 0.495398 7.21909 0.241761 8.81455 0.168125H8.81591ZM21.0614 2.86812C19.4795 2.79585 19.005 2.78085 15 2.78085C10.995 2.78085 10.5205 2.79585 8.93864 2.86812C7.47545 2.93494 6.68182 3.17903 6.15273 3.38494C5.45318 3.65767 4.95273 3.98085 4.42773 4.50585C3.93006 4.99001 3.54706 5.57942 3.30682 6.23085C3.10091 6.75994 2.85682 7.55358 2.79 9.01676C2.71773 10.5986 2.70273 11.0731 2.70273 15.0781C2.70273 19.0831 2.71773 19.5577 2.79 21.1395C2.85682 22.6027 3.10091 23.3963 3.30682 23.9254C3.54682 24.5759 3.93 25.1663 4.42773 25.6504C4.91182 26.1481 5.50227 26.5313 6.15273 26.7713C6.68182 26.9772 7.47545 27.2213 8.93864 27.2881C10.5205 27.3604 10.9936 27.3754 15 27.3754C19.0064 27.3754 19.4795 27.3604 21.0614 27.2881C22.5245 27.2213 23.3182 26.9772 23.8473 26.7713C24.5468 26.4986 25.0473 26.1754 25.5723 25.6504C26.07 25.1663 26.4532 24.5759 26.6932 23.9254C26.8991 23.3963 27.1432 22.6027 27.21 21.1395C27.2823 19.5577 27.2973 19.0831 27.2973 15.0781C27.2973 11.0731 27.2823 10.5986 27.21 9.01676C27.1432 7.55358 26.8991 6.75994 26.6932 6.23085C26.4205 5.53131 26.0973 5.03085 25.5723 4.50585C25.0881 4.00822 24.4987 3.62523 23.8473 3.38494C23.3182 3.17903 22.5245 2.93494 21.0614 2.86812ZM13.0841 19.7022C14.1541 20.1476 15.3455 20.2077 16.4549 19.8723C17.5643 19.5368 18.5228 18.8266 19.1667 17.863C19.8107 16.8994 20.1001 15.742 19.9855 14.5887C19.871 13.4354 19.3596 12.3576 18.5386 11.5395C18.0153 11.0165 17.3826 10.6161 16.6859 10.367C15.9893 10.1179 15.246 10.0263 14.5098 10.099C13.7735 10.1716 13.0625 10.4065 12.4279 10.7869C11.7933 11.1673 11.251 11.6837 10.84 12.2988C10.4289 12.914 10.1593 13.6126 10.0507 14.3444C9.94206 15.0763 9.99702 15.8231 10.2116 16.5311C10.4263 17.2391 10.7952 17.8908 11.2919 18.4391C11.7886 18.9874 12.4007 19.4188 13.0841 19.7022ZM9.54818 9.62631C10.2641 8.91036 11.1141 8.34245 12.0495 7.95498C12.9849 7.56752 13.9875 7.36809 15 7.36809C16.0125 7.36809 17.0151 7.56752 17.9505 7.95498C18.8859 8.34245 19.7359 8.91036 20.4518 9.62631C21.1678 10.3422 21.7357 11.1922 22.1231 12.1276C22.5106 13.063 22.71 14.0656 22.71 15.0781C22.71 16.0906 22.5106 17.0932 22.1231 18.0286C21.7357 18.9641 21.1678 19.814 20.4518 20.5299C19.0059 21.9759 17.0448 22.7882 15 22.7882C12.9552 22.7882 10.9941 21.9759 9.54818 20.5299C8.10227 19.084 7.28997 17.123 7.28997 15.0781C7.28997 13.0333 8.10227 11.0722 9.54818 9.62631ZM24.42 8.51631C24.5974 8.34895 24.7394 8.14769 24.8377 7.92445C24.9359 7.70122 24.9884 7.46054 24.9919 7.21667C24.9955 6.9728 24.9501 6.73069 24.8584 6.50468C24.7667 6.27868 24.6306 6.07337 24.4581 5.90091C24.2857 5.72844 24.0804 5.59234 23.8544 5.50065C23.6283 5.40896 23.3862 5.36355 23.1424 5.3671C22.8985 5.37066 22.6578 5.42311 22.4346 5.52135C22.2113 5.61959 22.0101 5.76162 21.8427 5.93903C21.5172 6.28407 21.339 6.74238 21.346 7.21667C21.3529 7.69095 21.5444 8.14387 21.8798 8.47927C22.2152 8.81468 22.6681 9.00616 23.1424 9.01308C23.6167 9.01999 24.075 8.84179 24.42 8.51631Z" fill="white"/>
</svg>
