<svg width="615" height="615" viewBox="0 0 615 615" fill="none" xmlns="http://www.w3.org/2000/svg">
<path d="M306.763 0.647352C299.347 0.647352 294.403 7.65135 296.463 14.6554L302.231 32.3714L329.835 118.479C340.959 152.675 367.739 181.927 406.879 202.527C412.235 205.411 417.179 207.883 422.123 209.943C428.303 212.827 429.539 221.067 424.183 225.599L415.119 233.015C414.295 233.427 408.939 237.959 401.523 247.847C397.403 253.203 389.987 254.439 384.219 251.143C317.475 212.415 300.171 173.687 298.935 171.627L249.083 38.9633L242.079 20.0114C239.607 13.8314 233.015 10.1234 226.423 11.7714C219.831 13.4194 213.239 15.4794 207.059 17.5394C123.011 46.7913 55.0309 111.887 22.4829 194.699C20.0109 200.467 17.9509 206.235 16.3029 212.415C13.8309 219.419 19.1869 226.423 26.6029 226.835H45.1429L134.547 227.659H136.195C189.343 227.659 229.307 193.463 252.791 167.095C256.087 162.975 262.679 164.211 264.739 169.155L270.095 183.575C270.507 184.399 273.391 191.403 280.807 202.115C283.691 206.235 282.867 212.003 279.159 215.299C219.831 268.859 176.159 273.803 174.099 273.803L33.6069 280.807L12.5949 282.043C6.00286 282.455 1.05886 287.399 0.646863 293.991C0.234863 298.523 0.234863 303.467 0.234863 307.999V314.591C2.29486 406.467 44.7309 488.867 110.651 544.075C116.007 548.607 121.363 552.727 126.719 556.847C132.075 560.555 139.079 558.083 141.139 551.903L147.731 532.539L175.747 448.491C193.051 397.403 172.863 347.963 154.323 317.063C151.439 312.531 154.735 306.763 160.091 306.351L175.335 305.527C176.159 305.527 185.635 304.703 200.879 299.759C205.411 298.111 210.355 300.583 212.415 304.703C244.551 378.039 235.075 420.887 234.663 422.947L195.523 558.907L189.755 579.095C188.107 585.275 190.991 591.867 197.171 593.927C203.351 596.399 209.943 598.871 216.535 600.519C245.375 609.583 275.863 614.527 307.587 614.527C366.503 614.527 421.299 598.047 468.267 569.207C474.035 565.499 480.215 561.791 485.571 557.671C490.515 553.963 490.515 546.547 485.571 542.839L469.091 530.479L399.875 477.743C357.439 445.195 305.115 447.667 270.095 455.083C264.327 456.319 259.383 450.963 261.031 445.195L265.151 431.599C265.563 430.775 267.623 421.711 268.035 405.643C268.035 401.111 271.743 396.991 276.275 396.579C354.967 389.575 392.459 411.411 394.107 412.647L511.527 492.163L528.831 503.699C534.187 507.407 541.191 506.171 545.311 501.227C549.843 495.871 553.963 490.515 557.671 484.747C593.515 434.483 614.527 373.095 614.527 306.763C614.527 282.043 611.643 258.147 605.875 235.075C604.227 228.483 602.579 221.891 600.519 215.711C598.459 209.531 591.043 207.059 585.687 210.767L569.207 221.891L497.107 271.743C467.031 292.343 446.843 325.715 438.191 369.387C436.955 375.567 436.131 381.747 435.307 387.515C434.483 393.695 427.479 396.991 422.123 393.283L410.999 385.867C410.175 385.455 404.407 381.335 392.459 377.215C387.103 375.155 384.219 369.799 385.043 364.031C400.699 286.987 432.423 257.735 433.659 256.499L543.251 166.271L560.143 152.263C564.675 148.555 565.499 142.375 562.203 137.431C558.083 131.251 553.963 125.483 549.431 119.715C496.695 51.3233 415.531 5.59135 323.655 0.235352L306.763 0.647352ZM360.323 108.591L340.959 48.4394C338.899 41.4353 344.667 34.8433 351.671 36.0793C418.415 46.7913 477.331 81.3993 519.355 131.251C523.887 136.607 523.063 144.435 517.707 148.555L471.563 186.459C467.443 189.755 462.499 190.579 457.555 189.343C433.247 181.927 376.391 159.267 360.323 108.591ZM135.783 195.523H134.547L73.1589 195.111C65.3309 195.111 60.3869 186.871 64.0949 179.867C94.5829 121.775 145.671 76.0434 207.059 51.7354C213.239 49.2634 220.243 52.5593 222.715 58.7393L244.139 114.771C245.787 119.303 245.375 124.659 242.491 128.779C227.659 148.967 188.519 195.523 135.783 195.523ZM146.083 438.191L125.895 498.755C123.835 504.523 116.419 506.583 112.299 502.051C65.7429 455.083 36.0789 391.223 32.7829 321.183C32.3709 316.651 36.0789 312.943 40.6109 312.531L104.471 309.235C108.591 309.235 112.299 310.883 114.771 313.767C129.191 333.131 163.799 386.279 146.083 438.191ZM381.335 503.287L431.599 541.603C436.131 545.311 435.719 552.315 430.363 555.199C393.695 573.327 352.083 584.039 307.999 584.039C282.455 584.039 257.735 580.743 234.251 574.151C229.307 572.915 226.835 567.971 228.071 563.027L245.787 501.227C247.023 497.519 249.495 494.635 253.203 493.399C275.863 485.571 337.663 469.503 381.335 503.287ZM344.255 366.091C325.303 363.619 301.819 362.795 274.215 365.267C268.859 365.679 264.327 362.383 263.091 357.027C258.971 338.075 252.379 316.239 241.667 291.107C239.607 286.575 241.255 281.631 245.375 279.159C261.443 269.683 279.983 256.499 299.759 238.371C303.467 235.075 309.235 235.075 312.943 238.371C327.775 251.967 347.139 266.387 372.683 280.807C376.391 282.867 377.627 286.987 375.979 290.695C368.151 308.411 360.735 330.247 355.379 357.439C354.555 363.207 349.611 366.915 344.255 366.091ZM521.827 460.851L472.799 427.891C468.679 425.007 466.207 420.475 466.207 415.119C466.207 389.987 471.563 328.599 515.647 298.523L566.323 263.503C572.091 259.383 579.919 263.091 580.743 270.095C582.391 282.455 583.215 294.815 583.215 307.587C583.215 362.795 567.147 413.883 539.131 457.143C535.423 463.323 527.595 464.971 521.827 460.851Z" fill="#BF0000"/>
</svg>
