<svg width="30" height="22" viewBox="0 0 30 22" fill="none" xmlns="http://www.w3.org/2000/svg">
<path d="M3.29 0.078125H26.4775C28.665 0.078125 29.7675 1.11062 29.7675 3.21062V17.9456C29.7675 20.0281 28.665 21.0781 26.4775 21.0781H3.29C1.1025 21.0781 0 20.0281 0 17.9456V3.21062C0 1.11062 1.1025 0.078125 3.29 0.078125ZM14.875 15.1281L26.67 5.45063C27.09 5.10063 27.4225 4.29563 26.8975 3.57812C26.39 2.86063 25.4625 2.84312 24.85 3.28062L14.875 10.0356L4.9175 3.28062C4.305 2.84312 3.3775 2.86063 2.87 3.57812C2.345 4.29563 2.6775 5.10063 3.0975 5.45063L14.875 15.1281Z" fill="#BF0000"/>
</svg>
