<svg width="35" height="36" viewBox="0 0 35 36" fill="none" xmlns="http://www.w3.org/2000/svg">
<path d="M29.1663 16.1157H32.0829C32.0829 8.63448 26.4348 2.99219 18.9434 2.99219V5.90885C24.8671 5.90885 29.1663 10.2007 29.1663 16.1157Z" fill="#BF0000"/>
<path d="M18.9587 11.748C22.0256 11.748 23.3337 13.0561 23.3337 16.123H26.2504C26.2504 11.4199 23.6619 8.83132 18.9587 8.83132V11.748ZM23.9492 19.6857C23.6689 19.431 23.3007 19.2952 22.9222 19.3069C22.5437 19.3186 22.1846 19.4769 21.9206 19.7484L18.4308 23.3374C17.5908 23.1769 15.9021 22.6505 14.1637 20.9165C12.4254 19.1767 11.899 17.4836 11.7429 16.6494L15.329 13.1582C15.6008 12.8944 15.7594 12.5352 15.7711 12.1566C15.7828 11.778 15.6467 11.4097 15.3917 11.1297L10.0031 5.20445C9.74797 4.92351 9.39336 4.7531 9.01459 4.72941C8.63583 4.70572 8.26274 4.83062 7.97458 5.07757L4.80999 7.79153C4.55787 8.04457 4.40738 8.38135 4.38708 8.73799C4.3652 9.10257 3.94812 17.7388 10.6448 24.4384C16.4869 30.279 23.8048 30.7063 25.8202 30.7063C26.1148 30.7063 26.2956 30.6976 26.3437 30.6947C26.7003 30.6747 27.0369 30.5235 27.2887 30.2703L30.0012 27.1042C30.2484 26.8163 30.3735 26.4433 30.3501 26.0645C30.3267 25.6858 30.1566 25.331 29.8758 25.0757L23.9492 19.6857Z" fill="#BF0000"/>
</svg>
