<svg width="30" height="31" viewBox="0 0 30 31" fill="none" xmlns="http://www.w3.org/2000/svg">
<g clip-path="url(#clip0_142_1949)">
<path fill-rule="evenodd" clip-rule="evenodd" d="M30 15.0781C30 23.3619 23.2838 30.0781 15 30.0781C6.71625 30.0781 0 23.3619 0 15.0781C0 6.79438 6.71625 0.078125 15 0.078125C23.2838 0.078125 30 6.79438 30 15.0781ZM15.5375 11.1519C14.0788 11.7581 11.1625 13.0144 6.79 14.9194C6.08 15.2019 5.7075 15.4781 5.67375 15.7481C5.61625 16.2056 6.18875 16.3856 6.96625 16.6294C7.0725 16.6631 7.1825 16.6969 7.295 16.7344C8.06125 16.9831 9.09125 17.2744 9.62625 17.2856C10.1125 17.2956 10.655 17.0956 11.2537 16.6856C15.3387 13.9269 17.4475 12.5331 17.58 12.5031C17.6737 12.4819 17.8037 12.4544 17.8913 12.5331C17.9788 12.6106 17.97 12.7581 17.9613 12.7981C17.9038 13.0394 15.6613 15.1256 14.4987 16.2056C14.1362 16.5419 13.88 16.7806 13.8275 16.8356C13.71 16.9569 13.59 17.0731 13.475 17.1844C12.7625 17.8694 12.23 18.3844 13.505 19.2244C14.1175 19.6281 14.6075 19.9619 15.0962 20.2944C15.63 20.6581 16.1625 21.0206 16.8525 21.4731C17.0275 21.5881 17.195 21.7069 17.3587 21.8231C17.98 22.2669 18.5387 22.6644 19.2288 22.6019C19.6287 22.5644 20.0437 22.1881 20.2537 21.0644C20.75 18.4069 21.7275 12.6519 21.9538 10.2794C21.9675 10.0824 21.9591 9.88449 21.9287 9.68937C21.9106 9.53179 21.8338 9.38679 21.7138 9.28312C21.535 9.13688 21.2575 9.10563 21.1325 9.10812C20.5688 9.11812 19.7038 9.41938 15.5375 11.1519Z" fill="white"/>
</g>
<defs>
<clipPath id="clip0_142_1949">
<rect width="30" height="30" fill="white" transform="translate(0 0.078125)"/>
</clipPath>
</defs>
</svg>
