<svg width="30" height="24" viewBox="0 0 30 24" fill="none" xmlns="http://www.w3.org/2000/svg">
<path d="M30 2.80634C28.8968 3.26738 27.7116 3.57889 26.4657 3.71969C27.7513 2.99424 28.713 1.85246 29.1716 0.507408C27.9638 1.18399 26.6419 1.66023 25.2634 1.91543C24.3364 0.981979 23.1085 0.363274 21.7704 0.15537C20.4324 -0.0525341 19.059 0.161996 17.8634 0.765652C16.6679 1.36931 15.7171 2.32832 15.1588 3.49379C14.6004 4.65926 14.4656 5.96598 14.7754 7.21108C12.328 7.0952 9.93389 6.4953 7.74829 5.45032C5.5627 4.40533 3.63451 2.93863 2.08888 1.14538C1.56038 2.00514 1.2565 3.00197 1.2565 4.0636C1.25591 5.0193 1.50546 5.96037 1.98302 6.8033C2.46057 7.64623 3.15136 8.36496 3.9941 8.89573C3.01675 8.8664 2.06096 8.61734 1.20629 8.16929V8.24405C1.20619 9.58446 1.69783 10.8836 2.59779 11.9211C3.49775 12.9586 4.7506 13.6705 6.14375 13.9359C5.2371 14.1674 4.28654 14.2014 3.36387 14.0356C3.75693 15.189 4.52259 16.1975 5.55364 16.9201C6.5847 17.6427 7.82954 18.0431 9.11389 18.0653C6.93363 19.6794 4.24102 20.555 1.46922 20.5512C0.978219 20.5513 0.487637 20.5242 0 20.4702C2.81354 22.1762 6.08871 23.0816 9.43363 23.0781C20.7566 23.0781 26.9466 14.2337 26.9466 6.56315C26.9466 6.31394 26.94 6.06224 26.9281 5.81303C28.1322 4.99186 29.1715 3.975 29.9974 2.81008L30 2.80634Z" fill="white"/>
</svg>
