<svg width="30" height="21" viewBox="0 0 30 21" fill="none" xmlns="http://www.w3.org/2000/svg">
<path d="M29.3718 3.21613C29.202 2.61054 28.8711 2.06227 28.4144 1.62961C27.9449 1.18364 27.3693 0.86463 26.7422 0.702686C24.395 0.0843196 14.9913 0.0843198 14.9913 0.0843198C11.0709 0.0397382 7.1516 0.235819 3.25533 0.671455C2.62816 0.845364 2.0537 1.1715 1.58306 1.62087C1.12062 2.06559 0.785666 2.614 0.610689 3.21488C0.190362 5.47815 -0.0138616 7.77623 0.000771375 10.0781C-0.0142266 12.3779 0.189496 14.6753 0.610689 16.9414C0.781916 17.5397 1.11562 18.0856 1.57931 18.5266C2.043 18.9676 2.62042 19.2862 3.25533 19.4548C5.63376 20.0719 14.9913 20.0719 14.9913 20.0719C18.9166 20.1166 22.8409 19.9205 26.7422 19.4848C27.3693 19.3228 27.9449 19.0038 28.4144 18.5579C28.871 18.1253 29.2014 17.5769 29.3706 16.9713C29.8019 14.7089 30.0116 12.4099 29.9967 10.1069C30.0292 7.79404 29.8197 5.48417 29.3718 3.21488V3.21613ZM12.0017 14.3555V5.80202L19.8256 10.0794L12.0017 14.3555Z" fill="white"/>
</svg>
