<svg width="18" height="20" viewBox="0 0 18 20" fill="none" xmlns="http://www.w3.org/2000/svg">
<path fill-rule="evenodd" clip-rule="evenodd" d="M3.43899 0.055749C3.05812 0.221459 2.83917 0.606591 2.83917 1.11083V1.39912L1.95046 1.41236C1.06867 1.42549 1.06 1.42643 0.838425 1.53499C0.411612 1.74406 0.125663 2.1161 0.0278079 2.58979C-0.0244988 2.84312 -0.00672483 3.04879 0.112928 3.57358C0.547164 5.47795 1.80264 7.21896 3.48146 8.24486L3.80752 8.44412L4.10234 9.0409C4.2645 9.36912 4.54251 9.85535 4.72018 10.1214C5.2916 10.9771 6.19598 11.8046 6.93179 12.145L7.13621 12.2396L7.13562 12.438C7.13422 12.9227 6.92261 13.44 6.56994 13.8209C6.30262 14.1097 6.04929 14.2756 5.69092 14.3969C5.11828 14.5906 5.14394 14.5196 5.14394 15.9117V17.0228L4.54822 17.038C3.99366 17.0523 3.93565 17.061 3.70897 17.1645C3.41435 17.299 3.14949 17.5681 3.00277 17.882C2.90362 18.0941 2.89768 18.1416 2.88444 18.8261C2.86886 19.6324 2.89675 19.796 3.07078 19.9199C3.18289 19.9997 3.20156 20 8.61166 20C14.0281 20 14.0402 19.9998 14.142 19.9198C14.3054 19.7913 14.3331 19.6187 14.3178 18.8261C14.3044 18.1338 14.2995 18.0962 14.1948 17.871C14.0527 17.5657 13.7873 17.299 13.4884 17.1613C13.2658 17.0588 13.2095 17.0505 12.654 17.0378L12.0583 17.0241V15.8774C12.0583 14.5189 12.0855 14.5982 11.5557 14.4132C11.1569 14.2739 10.9169 14.124 10.6638 13.8561C10.3097 13.4812 10.1189 13.0498 10.0784 12.5324L10.055 12.233L10.3046 12.107C10.7731 11.8705 11.1399 11.5914 11.6301 11.0981C12.2221 10.5023 12.626 9.92105 13.0639 9.03465C13.3055 8.54549 13.3844 8.42002 13.4815 8.37033C13.7388 8.23864 14.3993 7.76218 14.7265 7.47221C16.0029 6.34103 16.9479 4.60893 17.1558 3.0195C17.2327 2.43154 16.8842 1.80902 16.3247 1.53499C16.1032 1.42651 16.0941 1.42549 15.2172 1.4124L14.333 1.39924L14.3162 1.04102C14.2968 0.62792 14.2196 0.438772 13.9873 0.234779C13.7012 -0.0164022 14.0598 -0.000932901 8.57306 0.000746852C4.42145 0.00203596 3.5408 0.0114504 3.43899 0.055749ZM13.336 2.70441C13.3152 4.61452 13.2917 4.90684 13.0731 5.97602C12.4816 8.86953 10.9957 11.0032 9.24566 11.4718C8.90507 11.563 8.25809 11.563 7.91749 11.4718C6.16832 11.0034 4.68127 8.86816 4.09004 5.97602C3.87147 4.90684 3.848 4.61452 3.82717 2.70441L3.80791 0.93676H8.58158H13.3552L13.336 2.70441ZM2.8512 3.34896C2.88237 4.66171 2.99077 5.59409 3.22703 6.58135C3.26813 6.75312 3.29395 6.90152 3.28438 6.91105C3.27481 6.92062 3.05136 6.70976 2.78784 6.44248C1.87948 5.52116 1.30047 4.45486 1.02261 3.19165C0.942609 2.82789 0.965383 2.66733 1.11769 2.52139C1.27415 2.3715 1.39282 2.35166 2.15937 2.34705L2.82729 2.34306L2.8512 3.34896ZM15.7835 2.37994C15.9746 2.42428 16.1519 2.59253 16.1832 2.75906C16.2323 3.02094 15.9593 3.98121 15.6465 4.64647C15.3404 5.29771 14.9241 5.88586 14.3753 6.44248C14.1118 6.70976 13.8883 6.92062 13.8788 6.91105C13.8692 6.90152 13.8952 6.75312 13.9366 6.58135C14.1672 5.6235 14.2812 4.64151 14.312 3.34896L14.3359 2.34306L14.9842 2.344C15.3409 2.34451 15.7005 2.36068 15.7835 2.37994ZM8.31805 2.77226C8.21469 2.83527 8.13093 2.97489 7.86452 3.52846C7.54872 4.1847 7.53337 4.20814 7.40536 4.23025C7.33254 4.24283 7.00925 4.29013 6.68697 4.33541C6.36469 4.38064 6.0448 4.44533 5.97612 4.4792C5.81221 4.55995 5.71447 4.76585 5.74217 4.97219C5.76092 5.11196 5.82495 5.19126 6.31821 5.68538L6.87315 6.24134L6.74701 6.96992C6.6776 7.37064 6.6317 7.74175 6.64494 7.79464C6.65822 7.8475 6.72002 7.94773 6.78225 8.01742C6.88382 8.1311 6.91675 8.14384 7.10371 8.14173C7.2886 8.13966 7.38344 8.10118 7.94811 7.79933L8.58423 7.45924L9.2177 7.79941C9.78104 8.10196 9.8742 8.13985 10.0594 8.14184C10.2464 8.14384 10.2793 8.13106 10.3809 8.01742C10.4431 7.94773 10.5049 7.8475 10.5182 7.79464C10.5315 7.74175 10.4856 7.37064 10.4161 6.96992L10.29 6.24134L10.8449 5.68538C11.3382 5.19126 11.4022 5.11196 11.421 4.97219C11.4485 4.76683 11.351 4.56053 11.187 4.47744C11.0969 4.43182 9.83049 4.21814 9.65002 4.21814C9.64088 4.21814 9.48435 3.91008 9.30215 3.53354C9.03304 2.97735 8.94722 2.83449 8.84459 2.77195C8.68338 2.67366 8.47958 2.67378 8.31805 2.77226ZM8.76506 4.64327C8.85963 4.84195 8.97019 5.01469 9.02624 5.05141C9.07972 5.08645 9.25203 5.13368 9.40919 5.15638C9.93472 5.2322 9.91721 5.19943 9.60439 5.52205C9.4527 5.67847 9.31653 5.85461 9.30176 5.91352C9.27844 6.00633 9.32637 6.43932 9.38977 6.70866C9.40895 6.79023 9.38629 6.78374 9.08394 6.62143C8.64463 6.38557 8.52126 6.38584 8.08175 6.62347C7.7717 6.79113 7.75264 6.79652 7.77272 6.71136C7.83663 6.44029 7.88483 6.0068 7.86139 5.91352C7.84663 5.85461 7.71045 5.67847 7.55876 5.52205C7.24594 5.19943 7.22844 5.2322 7.75397 5.15638C7.91112 5.13368 8.08265 5.087 8.13515 5.05258C8.18859 5.01754 8.30348 4.83859 8.3963 4.64565C8.48747 4.45623 8.57083 4.30072 8.58158 4.30005C8.59232 4.29939 8.6749 4.45385 8.76506 4.64327ZM9.10468 12.5907C9.11718 12.6373 9.12765 12.721 9.12793 12.7767C9.1298 13.129 9.42587 13.8744 9.71221 14.2478L9.86948 14.4529H8.62005C7.93284 14.4529 7.37059 14.4443 7.37059 14.4337C7.37059 14.4231 7.43345 14.3322 7.51029 14.2315C7.80596 13.8441 7.99409 13.3731 8.0755 12.8163L8.12066 12.5074L8.6013 12.5067C9.06179 12.506 9.08288 12.5095 9.10468 12.5907ZM11.1207 16.2108V17.0311H8.60111H6.08148V16.2108V15.3904H8.60111H11.1207V16.2108ZM13.2003 18.1216C13.327 18.2349 13.3279 18.2382 13.3412 18.649L13.3545 19.0625H8.60466H3.85483V18.7089C3.85483 18.4698 3.87393 18.3185 3.91393 18.2412C4.04007 17.9973 3.76014 18.011 8.62978 18.0093L13.0727 18.0077L13.2003 18.1216Z" fill="#747474"/>
</svg>
