<svg width="20" height="20" viewBox="0 0 20 20" fill="none" xmlns="http://www.w3.org/2000/svg">
<path d="M17.8969 10.4908L17.8967 10.4908C17.8152 11.8119 17.4029 13.0913 16.6978 14.2115C16.6815 14.2473 16.6603 14.2807 16.6347 14.3107C15.5609 15.9559 13.9165 17.1459 12.0179 17.6516L12.0053 17.6549H11.9922H11.9659C10.6765 17.9881 9.32353 17.9881 8.03412 17.6549H8.00781H7.99472L7.98207 17.6516C6.08349 17.1459 4.43912 15.9559 3.36533 14.3107C3.33973 14.2807 3.31847 14.2473 3.30216 14.2115C2.59706 13.0913 2.1848 11.8119 2.10331 10.4908L2.10294 10.4846H2.10313V10.4404L2.10211 10.4211C2.09471 10.281 2.0875 10.1443 2.0875 10.0003L17.8969 10.4908ZM17.8969 10.4908V10.4846M17.8969 10.4908V10.4846M17.8969 10.4846V10.4404M17.8969 10.4846V10.4404M12.8644 2.6258L12.8653 2.62613L12.904 2.64162C14.1336 3.12792 15.2221 3.91404 16.0703 4.92835C16.1048 4.95682 16.1335 4.99179 16.1545 5.03129C17.2922 6.43731 17.9129 8.19137 17.9125 10.0002L12.8644 2.6258ZM12.8644 2.6258C11.0221 1.90872 8.97788 1.90872 7.1356 2.6258L7.1356 2.62579M12.8644 2.6258L7.1356 2.62579M7.1356 2.62579L7.13474 2.62614M7.1356 2.62579L7.13474 2.62614M7.13474 2.62614L7.09604 2.64162M7.13474 2.62614L7.09604 2.64162M17.8969 10.4404L17.8979 10.421C17.9053 10.281 17.9125 10.1443 17.9125 10.0003L17.8969 10.4404ZM7.09604 2.64162C7.09599 2.64164 7.09593 2.64166 7.09588 2.64168M7.09604 2.64162L7.09588 2.64168M7.09588 2.64168C5.86629 3.12798 4.7779 3.91408 3.92975 4.92835C3.89518 4.95682 3.86655 4.99179 3.84545 5.03129C2.70776 6.43731 2.08713 8.19137 2.0875 10.0002L7.09588 2.64168ZM16.0843 13.6346H13.1523L12.3843 12.5841L13.4465 9.31415L14.6854 8.91567L17.0597 10.6417C16.9657 11.7004 16.6321 12.7238 16.0843 13.6346ZM6.84767 13.6346H3.91566C3.36785 12.7238 3.03433 11.7004 2.94034 10.6417L5.3146 8.91567L6.5535 9.31415L7.61566 12.5841L6.84767 13.6346ZM4.75759 8.29792L2.91966 9.63459C2.98178 8.38876 3.37603 7.1821 4.06146 6.13992L4.75759 8.29792ZM11.6303 12.244H8.36967L7.36743 9.14004L10 7.22545L12.6326 9.14004L11.6303 12.244ZM15.2424 8.29792L15.9385 6.13992C16.624 7.1821 17.0182 8.38877 17.0803 9.63459L15.2424 8.29792ZM12.7864 3.48163C13.7628 3.90197 14.6329 4.53544 15.3328 5.33561L14.4284 8.12415L13.1893 8.52992L10.4125 6.51179V5.20742L12.7864 3.48163ZM10 4.49377L8.1621 3.15712C9.36566 2.83126 10.6343 2.83126 11.8379 3.15712L10 4.49377ZM4.66723 5.33561C5.36711 4.53544 6.23716 3.90197 7.2136 3.48163L9.5875 5.20742V6.51179L6.81068 8.52992L5.57163 8.12415L4.66723 5.33561ZM6.76334 14.4596L7.46604 16.6164C6.30427 16.1696 5.27987 15.4259 4.49524 14.4596H6.76334ZM8.42902 16.9152L7.5172 14.1195L8.28514 13.069H11.7149L12.4828 14.1195L11.571 16.9152C10.5363 17.1451 9.46372 17.1451 8.42902 16.9152ZM13.2367 14.4596H15.5048C14.7201 15.4259 13.6957 16.1696 12.534 16.6164L13.2367 14.4596Z" fill="#747474" stroke="#747474" stroke-width="0.2"/>
</svg>
