<svg width="20" height="20" viewBox="0 0 20 20" fill="none" xmlns="http://www.w3.org/2000/svg">
<path d="M18.3337 16.6667V10.145C18.3337 9.69131 18.2411 9.24235 18.0616 8.82566C17.882 8.40896 17.6193 8.03331 17.2895 7.72171L11.1453 1.91504C10.8359 1.62248 10.4262 1.45947 10.0003 1.45947C9.57447 1.45947 9.16477 1.62248 8.85533 1.91504L2.71116 7.72171C2.38135 8.03331 2.11862 8.40896 1.93907 8.82566C1.75953 9.24235 1.66694 9.69131 1.66699 10.145V16.6667C1.66699 17.1087 1.84259 17.5327 2.15515 17.8452C2.46771 18.1578 2.89163 18.3334 3.33366 18.3334H16.667C17.109 18.3334 17.5329 18.1578 17.8455 17.8452C18.1581 17.5327 18.3337 17.1087 18.3337 16.6667Z" stroke="white" stroke-width="1.66667" stroke-linecap="round" stroke-linejoin="round"/>
</svg>
