<svg width="20" height="20" viewBox="0 0 20 20" fill="none" xmlns="http://www.w3.org/2000/svg">
<path d="M2.5 4.375C2.5 4.20924 2.56585 4.05027 2.68306 3.93306C2.80027 3.81585 2.95924 3.75 3.125 3.75H16.875C17.0408 3.75 17.1997 3.81585 17.3169 3.93306C17.4342 4.05027 17.5 4.20924 17.5 4.375C17.5 4.54076 17.4342 4.69973 17.3169 4.81694C17.1997 4.93415 17.0408 5 16.875 5H3.125C2.95924 5 2.80027 4.93415 2.68306 4.81694C2.56585 4.69973 2.5 4.54076 2.5 4.375ZM3.3075 7.0575C3.36556 6.9993 3.43453 6.95312 3.51046 6.92161C3.58639 6.8901 3.66779 6.87388 3.75 6.87388C3.83221 6.87388 3.91361 6.8901 3.98954 6.92161C4.06547 6.95312 4.13444 6.9993 4.1925 7.0575L6.6925 9.5575C6.7507 9.61556 6.79688 9.68453 6.82839 9.76046C6.8599 9.83639 6.87612 9.91779 6.87612 10C6.87612 10.0822 6.8599 10.1636 6.82839 10.2395C6.79688 10.3155 6.7507 10.3844 6.6925 10.4425L4.1925 12.9425C4.13439 13.0006 4.0654 13.0467 3.98948 13.0782C3.91355 13.1096 3.83218 13.1258 3.75 13.1258C3.66782 13.1258 3.58645 13.1096 3.51052 13.0782C3.4346 13.0467 3.36561 13.0006 3.3075 12.9425C3.24939 12.8844 3.20329 12.8154 3.17185 12.7395C3.1404 12.6636 3.12421 12.5822 3.12421 12.5C3.12421 12.4178 3.1404 12.3364 3.17185 12.2605C3.20329 12.1846 3.24939 12.1156 3.3075 12.0575L5.36625 10L3.3075 7.9425C3.2493 7.88444 3.20312 7.81547 3.17161 7.73954C3.1401 7.66361 3.12388 7.58221 3.12388 7.5C3.12388 7.41779 3.1401 7.33639 3.17161 7.26046C3.20312 7.18453 3.2493 7.11556 3.3075 7.0575ZM8.75 8.125C8.75 7.95924 8.81585 7.80027 8.93306 7.68306C9.05027 7.56585 9.20924 7.5 9.375 7.5H16.875C17.0408 7.5 17.1997 7.56585 17.3169 7.68306C17.4342 7.80027 17.5 7.95924 17.5 8.125C17.5 8.29076 17.4342 8.44973 17.3169 8.56694C17.1997 8.68415 17.0408 8.75 16.875 8.75H9.375C9.20924 8.75 9.05027 8.68415 8.93306 8.56694C8.81585 8.44973 8.75 8.29076 8.75 8.125ZM8.75 11.875C8.75 11.7092 8.81585 11.5503 8.93306 11.4331C9.05027 11.3158 9.20924 11.25 9.375 11.25H16.875C17.0408 11.25 17.1997 11.3158 17.3169 11.4331C17.4342 11.5503 17.5 11.7092 17.5 11.875C17.5 12.0408 17.4342 12.1997 17.3169 12.3169C17.1997 12.4342 17.0408 12.5 16.875 12.5H9.375C9.20924 12.5 9.05027 12.4342 8.93306 12.3169C8.81585 12.1997 8.75 12.0408 8.75 11.875ZM2.5 15.625C2.5 15.4592 2.56585 15.3003 2.68306 15.1831C2.80027 15.0658 2.95924 15 3.125 15H16.875C17.0408 15 17.1997 15.0658 17.3169 15.1831C17.4342 15.3003 17.5 15.4592 17.5 15.625C17.5 15.7908 17.4342 15.9497 17.3169 16.0669C17.1997 16.1842 17.0408 16.25 16.875 16.25H3.125C2.95924 16.25 2.80027 16.1842 2.68306 16.0669C2.56585 15.9497 2.5 15.7908 2.5 15.625Z" fill="#747474"/>
</svg>
