<svg width="20" height="20" viewBox="0 0 20 20" fill="none" xmlns="http://www.w3.org/2000/svg">
<path d="M14.9997 4.99984H13.333C13.333 3.15817 11.8413 1.6665 9.99967 1.6665C8.15801 1.6665 6.66634 3.15817 6.66634 4.99984H4.99967C4.08301 4.99984 3.33301 5.74984 3.33301 6.6665V16.6665C3.33301 17.5832 4.08301 18.3332 4.99967 18.3332H14.9997C15.9163 18.3332 16.6663 17.5832 16.6663 16.6665V6.6665C16.6663 5.74984 15.9163 4.99984 14.9997 4.99984ZM9.99967 3.33317C10.9163 3.33317 11.6663 4.08317 11.6663 4.99984H8.33301C8.33301 4.08317 9.08301 3.33317 9.99967 3.33317ZM14.9997 16.6665H4.99967V6.6665H6.66634V8.33317C6.66634 8.7915 7.04134 9.1665 7.49967 9.1665C7.95801 9.1665 8.33301 8.7915 8.33301 8.33317V6.6665H11.6663V8.33317C11.6663 8.7915 12.0413 9.1665 12.4997 9.1665C12.958 9.1665 13.333 8.7915 13.333 8.33317V6.6665H14.9997V16.6665Z" fill="#747474"/>
</svg>
